<svg width="20" height="19" viewBox="0 0 20 19" fill="none" xmlns="http://www.w3.org/2000/svg">
<path d="M6.30764 1.43747H1.58974C1.26403 1.43747 1 1.7023 1 2.02899V6.76114C1 7.08783 1.26403 7.35266 1.58974 7.35266H6.30764C6.63335 7.35266 6.89738 7.08783 6.89738 6.76114V2.02899C6.89738 1.7023 6.63335 1.43747 6.30764 1.43747Z" stroke="white" stroke-width="2" stroke-linecap="round" stroke-linejoin="round"/>
<path d="M6.30764 12.0848H1.58974C1.26403 12.0848 1 12.3496 1 12.6763V17.4085C1 17.7352 1.26403 18 1.58974 18H6.30764C6.63335 18 6.89738 17.7352 6.89738 17.4085V12.6763C6.89738 12.3496 6.63335 12.0848 6.30764 12.0848Z" stroke="white" stroke-width="2" stroke-linecap="round" stroke-linejoin="round"/>
<path d="M11.6152 13.2679L15.1537 16.817L18.6921 13.2679" stroke="white" stroke-width="2" stroke-linecap="round" stroke-linejoin="round"/>
<path d="M15.1537 16.817V2.62051" stroke="white" stroke-width="2" stroke-linecap="round" stroke-linejoin="round"/>
</svg>
