<svg width="20" height="17" viewBox="0 0 20 17" fill="none" xmlns="http://www.w3.org/2000/svg">
<path d="M1 1.70534C1 1.17597 1.45013 0.746826 2.00538 0.746826H18.0914C18.6467 0.746826 19.0968 1.17597 19.0968 1.70534V4.18384C19.0968 4.43804 18.9908 4.68185 18.8023 4.8616L12.3536 11.0097C12.1651 11.1894 12.0591 11.4332 12.0591 11.6874V13.3048C12.0591 13.8548 11.8339 14.3807 11.4359 14.7602V14.7602C10.156 15.9804 8.03763 15.0732 8.03763 13.3048V11.6874C8.03763 11.4332 7.93171 11.1894 7.74317 11.0097L1.29446 4.8616C1.10593 4.68185 1 4.43804 1 4.18384V1.70534Z" stroke="white" stroke-width="1.48" stroke-linecap="round" stroke-linejoin="round"/>
</svg>
